<svg width="472" height="443" viewBox="0 0 472 443" fill="none" xmlns="http://www.w3.org/2000/svg">
<path d="M22.9844 0H449.005C455.099 0 460.948 2.42187 465.255 6.72917C469.568 11.0365 471.99 16.8854 471.99 22.9792V420.021C471.99 426.115 469.568 431.958 465.255 436.266C460.948 440.578 455.099 443 449.005 443H22.9844C16.8906 443 11.0417 440.578 6.73438 436.266C2.42188 431.958 0 426.115 0 420.021V22.9792C0 16.8854 2.42188 11.0365 6.73438 6.72917C11.0417 2.42187 16.8906 0 22.9844 0Z" fill="#6842C2"/>
<path d="M377.849 161.74V88H221.794V120.26H187.658V217.043H163.275V120.26H95V323.048H163.275V226.264H187.658V323.048H221.794V355.307H377.849V281.567H221.794V313.827H197.411V226.264H221.794V258.524H377.849V184.784H221.794V217.043H197.411V129.48H221.794V161.74H377.849Z" fill="white"/>
</svg>
